#!OML:ASF F:\VICON\USERDATA\INSTALL\rory3\rory3.ASF
:FULLY-SPECIFIED
:DEGREES
177
root 2.7738 18.1174 1.89422 -5.15609 85.3723 -2.34338
lowerback 8.48277 1.31928 0.776722
upperback -0.224071 1.87323 0.557691
thorax -4.98625 0.917042 -0.0939656
lowerneck -21.0866 -5.68658 -12.484
upperneck 30.9093 -5.77474 7.58123
head 14.9161 -2.71219 4.24157
rclavicle -1.46184e-014 2.98177e-015
rhumerus -32.8769 -10.8056 -82.1184
rradius 28.4346
rwrist 8.08578
rhand -13.7002 9.05906
rfingers 7.12502
rthumb 12.4182 -20.5521
lclavicle -1.46184e-014 2.98177e-015
lhumerus -37.175 7.62396 85.3352
lradius 30.6704
lwrist -10.7275
lhand -13.9692 24.4069
lfingers 7.12502
lthumb 12.1588 54.0335
rfemur -2.06865 4.164 22.62
rtibia 22.3125
rfoot -13.543 1.22697
rtoes 4.25592
lfemur 0.836786 -6.98617 -21.3912
ltibia 14.6488
lfoot -8.11137 -8.80185
ltoes 3.109
178
root 2.77244 18.1171 1.90143 -5.22697 85.4035 -2.36588
lowerback 8.53114 1.35725 0.738823
upperback -0.19511 1.92243 0.590696
thorax -4.98538 0.942964 -0.0454764
lowerneck -21.0663 -5.70062 -12.4791
upperneck 30.8947 -5.78613 7.54523
head 14.905 -2.72138 4.2225
rclavicle -1.67165e-014 -5.76476e-015
rhumerus -32.9079 -10.8124 -81.9459
rradius 28.4441
rwrist 7.90772
rhand -13.575 9.16121
rfingers 7.12502
rthumb 12.5388 -20.4426
lclavicle -1.67165e-014 -5.76476e-015
lhumerus -37.1091 7.45703 85.4697
lradius 30.8453
lwrist -10.7135
lhand -13.8694 24.1407
lfingers 7.12502
lthumb 12.255 53.7617
rfemur -2.0948 4.14112 22.6712
rtibia 22.4537
rfoot -13.579 1.09544
rtoes 4.36028
lfemur 0.916453 -6.94521 -21.3513
ltibia 14.5636
lfoot -8.05181 -8.9606
ltoes 3.44996
179
root 2.76967 18.114 1.90987 -4.09178 85.4012 -1.1778
lowerback 8.61836 1.39192 0.610941
upperback -0.187969 1.95422 0.545747
thorax -5.02957 0.961033 -0.0266632
lowerneck -21.0235 -5.65773 -12.2771
upperneck 30.8683 -5.77574 7.46469
head 14.8694 -2.70364 4.15456
rclavicle 7.03667e-015 3.77691e-015
rhumerus -32.9586 -10.8188 -81.9496
rradius 28.4331
rwrist 7.78438
rhand -13.9829 8.91121
rfingers 7.12502
rthumb 12.1456 -20.7162
lclavicle 7.03667e-015 3.77691e-015
lhumerus -37.0901 7.17176 85.4766
lradius 31.0772
lwrist -10.7867
lhand -13.8096 24.1099
lfingers 7.12502
lthumb 12.3126 53.7274
rfemur -2.14244 4.16633 22.6275
rtibia 22.6201
rfoot -13.6891 0.948083
rtoes 3.62504
lfemur 1.00003 -6.66601 -21.4099
ltibia 14.4297
lfoot -8.0547 -9.2284
ltoes 2.59725
180
root 2.76536 18.1094 1.91814 -2.32858 85.4404 0.618856
lowerback 8.68424 1.37505 0.473356
upperback -0.172431 1.91396 0.464991
thorax -5.05219 0.943445 -0.0297073
lowerneck -20.9609 -5.61973 -12.1828
upperneck 30.755 -5.76723 7.47641
head 14.7983 -2.68769 4.14054
rclavicle -2.61371e-015 3.97569e-015
rhumerus -32.9184 -10.9928 -81.9904
rradius 28.2756
rwrist 7.91115
rhand -14.2392 8.79136
rfingers 7.12502
rthumb 11.8984 -20.8505
lclavicle -2.61371e-015 3.97569e-015
lhumerus -37.0568 6.88885 85.4527
lradius 31.3343
lwrist -10.4735
lhand -13.7175 23.8055
lfingers 7.12502
lthumb 12.4015 53.4176
rfemur -2.20608 4.16102 22.5329
rtibia 22.7672
rfoot -13.7858 0.773724
rtoes 2.74581
lfemur 1.05192 -6.77923 -21.5758
ltibia 14.3143
lfoot -8.09615 -9.10383
ltoes 0.881024
181
root 2.76148 18.1091 1.92693 -1.15369 85.4942 1.83017
lowerback 8.74663 1.32063 0.333749
upperback -0.144356 1.82777 0.464544
thorax -5.06249 0.904527 0.0581144
lowerneck -21.0066 -5.6032 -12.2837
upperneck 30.7235 -5.71297 7.51342
head 14.7928 -2.67172 4.18247
rclavicle -1.83783e-014 -2.18663e-015
rhumerus -32.8201 -11.1628 -81.9217
rradius 28.0763
rwrist 8.17296
rhand -14.273 8.87224
rfingers 7.12502
rthumb 11.8659 -20.7715
lclavicle -1.83783e-014 -2.18663e-015
lhumerus -37.0011 6.75305 85.525
lradius 31.5905
lwrist -9.98963
lhand -13.7581 23.8477
lfingers 7.12502
lthumb 12.3624 53.4622
rfemur -2.23607 4.25507 22.5073
rtibia 22.8789
rfoot -13.7638 0.53993
rtoes 2.81645
lfemur 1.09563 -7.06087 -21.6707
ltibia 14.2771
lfoot -8.06133 -8.9459
ltoes 1.04491
182
root 2.75882 18.1069 1.93528 -1.43636 85.5413 1.58602
lowerback 8.79437 1.26353 0.2821
upperback -0.109888 1.74897 0.501759
thorax -5.05602 0.867666 0.135319
lowerneck -21.1179 -5.56252 -12.3513
upperneck 30.7598 -5.63651 7.57576
head 14.8288 -2.63783 4.23669
rclavicle -8.16415e-015 -1.19271e-015
rhumerus -32.7275 -11.2145 -81.882
rradius 27.9262
rwrist 8.3004
rhand -14.2902 8.87991
rfingers 7.12502
rthumb 11.8493 -20.7648
lclavicle -8.16415e-015 -1.19271e-015
lhumerus -36.9611 6.60454 85.6769
lradius 31.8717
lwrist -9.15201
lhand -14.3444 24.1223
lfingers 7.12502
lthumb 11.797 53.7701
rfemur -2.23703 4.31128 22.573
rtibia 22.9641
rfoot -13.7087 0.461426
rtoes 3.76555
lfemur 1.12437 -7.12484 -21.6004
ltibia 14.2974
lfoot -8.03937 -9.05337
ltoes 1.86639
183
root 2.75327 18.102 1.94769 -2.70139 85.5969 0.344936
lowerback 8.865 1.23814 0.321776
upperback -0.0908494 1.72117 0.523272
thorax -5.07533 0.853327 0.137599
lowerneck -21.1906 -5.57595 -12.408
upperneck 30.7932 -5.66087 7.67288
head 14.8695 -2.64087 4.28449
rclavicle -1.85149e-014 1.59028e-015
rhumerus -32.6815 -11.3209 -81.8728
rradius 27.8305
rwrist 8.31325
rhand -14.2311 8.70367
rfingers 7.12502
rthumb 11.9063 -20.9378
lclavicle -1.85149e-014 1.59028e-015
lhumerus -36.926 5.90407 86.111
lradius 32.1585
lwrist -6.95127
lhand -14.3651 24.2807
lfingers 7.12502
lthumb 11.777 53.9296
rfemur -2.26918 4.1188 22.7168
rtibia 23.033
rfoot -13.669 0.539393
rtoes 4.05239
lfemur 1.11506 -7.19224 -21.4303
ltibia 14.3616
lfoot -8.08248 -9.14083
ltoes 2.01441
184
root 2.74505 18.0998 1.95994 -3.38738 85.6912 -0.306355
lowerback 9.00138 1.22092 0.354803
upperback -0.0790978 1.70329 0.528317
thorax -5.13898 0.843664 0.123614
lowerneck -21.1661 -5.60629 -12.4278
upperneck 30.7118 -5.71956 7.7235
head 14.8375 -2.66148 4.29441
rclavicle 8.97016e-015 -2.18663e-015
rhumerus -32.6477 -11.4251 -81.8518
rradius 27.7608
rwrist 8.45889
rhand -14.2964 8.50951
rfingers 7.12502
rthumb 11.8433 -21.1356
lclavicle 8.97016e-015 -2.18663e-015
lhumerus -36.8526 6.21509 85.6896
lradius 32.317
lwrist -8.75434
lhand -13.6054 24.3671
lfingers 7.12502
lthumb 12.5095 53.9726
rfemur -2.29419 3.95603 22.8235
rtibia 23.102
rfoot -13.6272 0.532498
rtoes 3.95548
lfemur 1.07337 -7.19229 -21.3168
ltibia 14.4494
lfoot -8.15063 -9.26647
ltoes 1.71023
185
root 2.73746 18.0982 1.9691 -2.12533 85.8276 0.973387
lowerback 9.08982 1.23212 0.275424
upperback -0.0572723 1.70842 0.488809
thorax -5.16702 0.847709 0.124648
lowerneck -21.1115 -5.61564 -12.3545
upperneck 30.5731 -5.76596 7.71861
head 14.7649 -2.67349 4.26458
rclavicle 1.42317e-014 -1.98785e-015
rhumerus -32.5902 -11.8142 -81.7069
rradius 27.5762
rwrist 8.87701
rhand -14.303 8.51466
rfingers 7.12502
rthumb 11.8369 -21.1308
lclavicle 1.42317e-014 -1.98785e-015
lhumerus -36.7551 5.9112 85.7441
lradius 32.5349
lwrist -8.63192
lhand -15.9275 24.9208
lfingers 7.12502
lthumb 10.2701 54.65
rfemur -2.36473 3.87996 22.7653
rtibia 23.212
rfoot -13.6608 0.432116
rtoes 4.08436
lfemur 1.02436 -7.17076 -21.3771
ltibia 14.4719
lfoot -8.13716 -9.41881
ltoes 1.55074
186
root 2.7334 18.0976 1.97743 -0.806446 85.9112 2.30359
lowerback 9.11578 1.23317 0.183144
upperback -0.0258754 1.69908 0.46644
thorax -5.15073 0.845344 0.154276
lowerneck -21.1339 -5.60551 -12.3845
upperneck 30.5383 -5.75211 7.76323
head 14.755 -2.66462 4.28986
rclavicle -1.81391e-014 -4.57205e-015
rhumerus -32.4769 -12.1842 -81.559
rradius 27.2827
rwrist 9.20891
rhand -14.2133 8.67923
rfingers 7.12502
rthumb 11.9234 -20.9612
lclavicle -1.81391e-014 -4.57205e-015
lhumerus -36.6847 5.33872 86.1317
lradius 32.7935
lwrist -6.84895
lhand -14.1627 23.9811
lfingers 7.12502
lthumb 11.9722 53.6187
rfemur -2.44352 3.92303 22.7117
rtibia 23.3578
rfoot -13.7148 0.297501
rtoes 4.446
lfemur 1.03627 -7.13396 -21.4521
ltibia 14.4124
lfoot -8.12523 -9.53699
ltoes 1.33773
187
root 2.7286 18.0962 1.98553 0.666372 86.035 3.85018
lowerback 9.21199 1.18263 0.108955
upperback 0.0303354 1.62259 0.425596
thorax -5.14663 0.809261 0.162289
lowerneck -21.2439 -5.57497 -12.4059
upperneck 30.5359 -5.68417 7.75659
head 14.7697 -2.63837 4.30313
rclavicle -2.2062e-014 4.96962e-015
rhumerus -32.3175 -12.1272 -81.6264
rradius 27.0258
rwrist 9.20752
rhand -14.2129 8.60833
rfingers 7.12502
rthumb 11.9238 -21.0321
lclavicle -2.2062e-014 4.96962e-015
lhumerus -36.5302 5.96708 85.6519
lradius 32.8922
lwrist -8.6471
lhand -14.4614 24.6202
lfingers 7.12502
lthumb 11.6842 54.2744
rfemur -2.43736 4.048 22.6673
rtibia 23.4887
rfoot -13.65 0.0281459
rtoes 5.36749
lfemur 1.09776 -7.10175 -21.5313
ltibia 14.372
lfoot -8.04919 -9.71832
ltoes 1.97132
188
root 2.72155 18.0922 1.99501 1.58525 86.2014 4.82385
lowerback 9.33705 1.138 0.110648
upperback 0.0595931 1.56046 0.354598
thorax -5.18402 0.777757 0.0935003
lowerneck -21.3062 -5.55113 -12.3208
upperneck 30.5293 -5.66201 7.72081
head 14.7722 -2.62311 4.27686
rclavicle -1.43498e-015 -4.96962e-015
rhumerus -32.2321 -12.2711 -81.7339
rradius 26.8315
rwrist 9.37359
rhand -14.3112 8.48585
rfingers 7.12502
rthumb 11.8291 -21.1601
lclavicle -1.43498e-015 -4.96962e-015
lhumerus -36.4067 5.84225 85.5323
lradius 33.0487
lwrist -8.50664
lhand -14.8024 24.5548
lfingers 7.12502
lthumb 11.3553 54.2273
rfemur -2.44191 4.19439 22.6961
rtibia 23.5853
rfoot -13.6137 -0.298081
rtoes 6.01934
lfemur 1.10449 -7.22468 -21.5666
ltibia 14.3893
lfoot -7.99581 -9.75287
ltoes 2.0025
189
root 2.71266 18.0908 2.00877 0.313842 86.3177 3.51664
lowerback 9.40001 1.13565 0.2094
upperback 0.0497377 1.5666 0.321344
thorax -5.22616 0.777719 0.00104191
lowerneck -21.2776 -5.57303 -12.3589
upperneck 30.4744 -5.73938 7.88306
head 14.7588 -2.63795 4.33556
rclavicle 3.6682e-015 -9.93923e-016
rhumerus -32.1781 -12.5342 -81.7974
rradius 26.6222
rwrist 9.5706
rhand -14.3412 8.4668
rfingers 7.12502
rthumb 11.8 -21.1808
lclavicle 3.6682e-015 -9.93923e-016
lhumerus -36.3121 5.25692 85.6834
lradius 33.2137
lwrist -7.15654
lhand -11.4978 23.0548
lfingers 7.12502
lthumb 14.5409 52.5252
rfemur -2.55666 4.35781 22.9193
rtibia 23.6814
rfoot -13.5778 -0.67238
rtoes 6.18219
lfemur 1.00136 -7.26754 -21.4069
ltibia 14.4353
lfoot -8.00297 -9.81243
ltoes 1.56872
